<svg width="151" height="56" viewBox="0 0 151 56" fill="none" xmlns="http://www.w3.org/2000/svg">
<path d="M15.1074 27.9541C12.7216 25.61 10.3775 23.3076 7.97497 20.9385C7.95829 21.147 7.94161 21.2638 7.94161 21.3889C7.8999 23.0407 7.84984 24.6924 7.81648 26.3441C7.80813 26.6528 7.70803 26.853 7.47445 27.0448C5.122 28.9802 2.78624 30.9239 0.442127 32.8676C0.333681 32.9593 0.208551 33.0511 0.0417101 33.1846C0.0417101 22.0813 0.0417101 11.0699 0.0417101 0.0583942C0.0583942 0.0500521 0.0667362 0.0417101 0.0834202 0.0333681C0.0917623 0.0333681 0.108446 0.0333681 0.12513 0.0417101C0.150156 0.0500521 0.16684 0.0667362 0.191867 0.0834202C0.225235 0.108446 0.250261 0.141814 0.283629 0.16684C7.4244 7.19917 14.5735 14.2398 21.7143 21.2722C21.7226 21.2805 21.7393 21.2888 21.7477 21.2972C21.7643 21.3055 21.7727 21.3055 21.8394 21.3222C29.0386 14.2315 36.2544 7.12409 43.487 0C43.5871 0.333681 43.6121 42.3608 43.5203 42.8697C43.4369 42.8196 43.3535 42.7779 43.2868 42.7278C40.8676 40.7258 38.4567 38.7153 36.0375 36.7216C35.8206 36.5464 35.7956 36.3462 35.7956 36.1043C35.7539 31.2576 35.7122 26.4108 35.6705 21.5641C35.6705 21.3889 35.6621 21.2138 35.6538 21.0386C35.6204 21.0302 35.5954 21.0136 35.562 21.0052C23.7331 32.6507 11.9208 44.2878 0.0333681 56C0.016684 55.7581 0.00834202 55.6246 0.00834202 55.4911C0.00834202 51.4202 0.00834202 47.3577 0 43.2868C0 42.9698 0.100104 42.7445 0.325339 42.5276C5.122 37.8144 9.90198 33.0928 14.6903 28.3796C14.8154 28.2544 14.9406 28.121 15.1074 27.9541Z" fill="#1F3167"/>
<path d="M136.922 27.3406C138.324 25.2051 139.692 23.1279 141.068 21.0424C140.952 20.8589 140.843 20.6921 140.735 20.5336C139.667 18.9402 138.599 17.3552 137.523 15.7703C137.364 15.5367 137.289 15.3031 137.39 15.0111C137.515 15.0028 137.64 14.9861 137.757 14.9861C138.716 14.9861 139.675 14.9945 140.635 14.9778C140.901 14.9778 141.06 15.0529 141.193 15.2948C141.727 16.2374 142.286 17.1634 142.845 18.0977C142.92 18.2228 143.004 18.348 143.12 18.5315C143.371 18.1227 143.579 17.7723 143.796 17.4136C144.222 16.6962 144.647 15.9788 145.064 15.2614C145.164 15.0946 145.264 14.9861 145.481 14.9945C146.541 15.0028 147.592 15.0028 148.651 15.0028C148.701 15.0028 148.76 15.0195 148.818 15.0362C148.943 15.3365 148.843 15.5701 148.676 15.812C147.6 17.4136 146.524 19.0153 145.456 20.617C145.364 20.7588 145.273 20.8923 145.173 21.0591C145.356 21.3427 145.531 21.618 145.715 21.8933C146.841 23.6118 147.967 25.3302 149.093 27.0487C149.252 27.2906 149.385 27.5242 149.269 27.8495C149.177 27.8579 149.077 27.8829 148.968 27.8829C147.942 27.8829 146.916 27.8745 145.882 27.8912C145.623 27.8912 145.481 27.7995 145.356 27.5826C144.714 26.4731 144.063 25.3803 143.412 24.2791C143.329 24.1373 143.237 24.0038 143.112 23.8036C142.979 24.0205 142.887 24.1623 142.795 24.3208C142.153 25.4136 141.519 26.4981 140.885 27.5909C140.768 27.7828 140.651 27.8912 140.401 27.8912C138.182 27.8829 135.955 27.8829 133.736 27.8829C133.644 27.8829 133.544 27.8662 133.427 27.8579C133.185 27.349 132.935 26.8401 132.685 26.3146C131.075 26.3146 129.481 26.3146 127.863 26.3146C127.621 26.8234 127.379 27.3323 127.137 27.8495C125.961 27.8495 124.81 27.8495 123.65 27.8495C123.517 27.5325 123.65 27.2823 123.767 27.032C124.368 25.764 124.96 24.496 125.561 23.228C126.812 20.5669 128.071 17.9058 129.314 15.2447C129.456 14.9444 129.623 14.8276 129.948 14.861C130.182 14.886 130.424 14.886 130.657 14.861C130.958 14.836 131.125 14.9361 131.258 15.228C131.8 16.4293 132.368 17.6222 132.918 18.8151C134.169 21.5096 135.429 24.1957 136.689 26.8902C136.747 27.007 136.822 27.1404 136.922 27.3406ZM131.592 23.4116C131.141 22.3771 130.733 21.4178 130.299 20.4335C129.998 20.8756 129.081 23.1029 129.056 23.4116C129.873 23.4116 130.691 23.4116 131.592 23.4116Z" fill="#3E4353"/>
<path d="M122.391 14.936C122.391 19.2655 122.391 23.5367 122.391 27.8411C121.282 27.8411 120.197 27.8411 119.046 27.8411C119.046 25.9058 119.046 23.9871 119.046 22.0685C119.012 22.0601 118.987 22.0434 118.954 22.0351C118.637 22.3521 118.32 22.6774 118.011 23.0028C117.519 23.5116 117.035 24.0288 116.552 24.5377C116.193 24.9048 116.001 24.9048 115.659 24.546C114.917 23.7702 114.182 23.0028 113.44 22.2353C113.382 22.1769 113.323 22.1269 113.198 22.0184C113.148 22.5606 113.181 23.0445 113.173 23.52C113.165 23.9955 113.173 24.4626 113.173 24.9381C113.173 25.422 113.173 25.9058 113.173 26.398C113.173 26.8651 113.173 27.3406 113.173 27.7994C112.839 27.9079 110.245 27.9162 109.82 27.8245C109.82 23.5617 109.82 19.2906 109.82 14.9611C110.187 14.9611 110.545 14.9444 110.904 14.9694C111.021 14.9777 111.138 15.1029 111.229 15.203C112.339 16.4042 113.44 17.6138 114.55 18.8234C115.058 19.374 115.567 19.9246 116.101 20.5002C116.218 20.3917 116.318 20.3 116.41 20.2082C117.936 18.5398 119.463 16.8714 120.981 15.1946C121.131 15.0278 121.29 14.936 121.523 14.9527C121.799 14.9444 122.082 14.936 122.391 14.936Z" fill="#3E4353"/>
<path d="M94.4282 21.4676C94.4449 19.7909 94.837 18.2893 95.9048 17.013C96.739 16.012 97.7984 15.3446 99.0497 15.0026C101.11 14.4353 103.079 14.6522 104.881 15.8284C106.416 16.8295 107.25 18.2893 107.55 20.0745C107.759 21.3258 107.709 22.5771 107.3 23.7784C106.449 26.2476 104.681 27.6407 102.128 28.0328C100.785 28.2414 99.4668 28.0912 98.2072 27.5573C96.4386 26.8065 95.2875 25.4885 94.7369 23.6533C94.5116 22.9192 94.4532 22.1684 94.4282 21.4676ZM100.476 17.964C99.642 18.0141 98.6243 18.6063 98.1154 19.866C97.6566 21.0088 97.6816 22.1767 98.2739 23.2862C98.8578 24.3623 99.8088 24.8795 101.002 24.8962C102.161 24.9129 103.112 24.4207 103.721 23.4197C104.355 22.3853 104.405 21.2758 104.063 20.1413C103.671 18.7982 102.37 17.8722 100.476 17.964Z" fill="#3E4353"/>
<path d="M78.8872 14.9945C80.0384 14.9945 81.1229 14.9945 82.1906 14.9945C82.2907 15.3199 82.3074 27.4325 82.199 27.8997C81.9237 27.8997 81.6317 27.9247 81.3481 27.8913C81.2313 27.8746 81.1062 27.7662 81.0144 27.6744C80.1885 26.8736 79.3627 26.0644 78.5452 25.2552C77.3105 24.0373 76.0759 22.811 74.8413 21.5931C74.7579 21.5097 74.6578 21.4262 74.5076 21.2928C74.4576 21.785 74.4909 22.2104 74.4826 22.6358C74.4743 23.0696 74.4826 23.4951 74.4826 23.9289C74.4826 24.371 74.4826 24.8131 74.4826 25.2636C74.4826 25.6974 74.4826 26.1228 74.4826 26.5566C74.4826 26.982 74.4826 27.4075 74.4826 27.8496C73.3397 27.8496 72.2469 27.8496 71.1375 27.8496C71.1375 23.5451 71.1375 19.2657 71.1375 14.9278C71.4795 14.9278 71.7965 14.9111 72.1051 14.9362C72.2136 14.9445 72.3137 15.0613 72.4054 15.1447C73.6401 16.3042 74.8663 17.4638 76.101 18.6317C76.9101 19.3908 77.711 20.1583 78.5201 20.9174C78.6036 21.0008 78.7037 21.0675 78.8705 21.201C78.9039 20.6254 78.8872 20.1249 78.8872 19.616C78.8872 19.0988 78.8872 18.59 78.8872 18.0728C78.8872 17.5722 78.8872 17.0717 78.8872 16.5712C78.8872 16.054 78.8872 15.5451 78.8872 14.9945Z" fill="#3E4353"/>
<path d="M92.5181 20.7667C92.5181 21.7511 92.5181 22.7021 92.5181 23.7031C91.1584 23.7031 89.8236 23.7031 88.4222 23.7031C88.4138 24.2037 88.4138 24.6541 88.4055 25.1046C88.4055 25.5467 88.4055 25.9972 88.4055 26.4393C88.4055 26.8981 88.4055 27.3486 88.4055 27.8408C87.2793 27.8408 86.1865 27.8408 85.1021 27.8408C85.0103 27.5154 84.9936 15.4362 85.0937 15.0107C87.7298 15.0107 90.3742 15.0107 93.0437 15.0107C93.0437 15.9701 93.0437 16.9044 93.0437 17.8971C91.5171 17.9388 89.9905 17.8887 88.4305 17.9221C88.3805 18.8564 88.4138 19.7657 88.4055 20.7334C89.7986 20.7751 91.15 20.7083 92.5181 20.7667Z" fill="#3E4353"/>
<path d="M62.2198 27.8159C62.2115 27.6908 62.2031 27.5824 62.2031 27.4739C62.2031 26.7231 62.2031 25.9807 62.2031 25.1882C62.737 25.0964 63.2709 25.1966 63.8131 25.1215C63.8131 22.6606 63.8131 20.2247 63.8131 17.7388C63.346 17.7388 62.8788 17.7388 62.4284 17.7388C62.3199 17.3884 62.3032 15.4948 62.395 14.9943C64.4722 14.9692 66.5577 14.9859 68.6849 14.9859C68.7266 15.9119 68.7099 16.7878 68.6932 17.7221C68.201 17.7221 67.7339 17.7221 67.2417 17.7221C67.2417 20.208 67.2417 22.6439 67.2417 25.1465C67.7589 25.1465 68.2761 25.1465 68.8267 25.1465C68.8267 26.0725 68.8267 26.9484 68.8267 27.8076C68.5264 27.8827 62.762 27.9077 62.2198 27.8159Z" fill="#3E4353"/>
<path d="M120.847 33.7468C120.505 33.8385 120.188 33.9303 119.846 34.0221C119.788 33.9053 119.738 33.8052 119.704 33.7051C119.413 32.8625 118.829 32.3286 117.953 32.1535C116.843 31.9449 115.792 32.0617 114.899 32.8375C114.516 33.1712 114.265 33.605 114.099 34.0805C113.765 35.0231 113.74 35.9824 113.957 36.9501C114.299 38.4517 115.333 39.2108 116.818 39.3693C117.811 39.4694 118.712 39.1858 119.546 38.6686C119.763 38.5351 119.846 38.3766 119.838 38.1263C119.821 37.6842 119.83 37.2421 119.83 36.7416C118.929 36.7416 118.061 36.7416 117.169 36.7416C117.169 36.3662 117.169 36.0575 117.169 35.7489C117.469 35.6654 120.322 35.6404 120.989 35.7155C120.998 35.8239 121.023 35.9407 121.023 36.0575C121.023 36.9418 121.014 37.8344 121.031 38.7186C121.031 38.9689 120.947 39.1274 120.747 39.2775C119.763 40.0033 118.653 40.4788 117.435 40.5038C115.926 40.5372 114.549 40.1201 113.54 38.8855C112.981 38.2014 112.706 37.3922 112.605 36.5163C112.464 35.3151 112.647 34.1639 113.231 33.0961C113.657 32.312 114.282 31.7364 115.116 31.411C116.451 30.9021 117.803 30.8521 119.129 31.436C120.072 31.8448 120.714 32.7291 120.847 33.7468Z" fill="#3E4353"/>
<path d="M78.8789 35.8327C79.3294 36.0663 79.5379 36.3999 79.7131 36.767C80.2303 37.8431 80.7392 38.9192 81.248 40.0037C81.2814 40.0621 81.2981 40.1288 81.3482 40.254C81.0895 40.2623 80.8643 40.279 80.6391 40.279C79.7882 40.2623 80.0051 40.4041 79.6547 39.6283C79.3044 38.8442 78.9623 38.0517 78.6203 37.2675C78.5452 37.1007 78.4618 36.9422 78.3701 36.792C78.1698 36.475 77.8862 36.2998 77.5108 36.2915C77.1271 36.2832 76.7434 36.2915 76.3179 36.2915C76.3179 37.6346 76.3179 38.9359 76.3179 40.254C75.8758 40.254 75.4837 40.254 75.075 40.254C75.075 37.3009 75.075 34.3728 75.075 31.4281C75.1417 31.4114 75.2001 31.3697 75.2668 31.378C76.2929 31.3947 77.319 31.4031 78.345 31.4364C78.6287 31.4448 78.9206 31.5199 79.1959 31.6116C80.1719 31.9286 80.6224 32.6127 80.6724 33.6387C80.7225 34.7566 80.0134 35.4823 79.1792 35.7326C79.1041 35.7409 79.0458 35.7743 78.8789 35.8327ZM76.3263 35.2237C76.9352 35.1987 77.5025 35.182 78.0697 35.132C78.2699 35.1153 78.4702 35.0235 78.6537 34.9317C79.2043 34.6481 79.3794 34.1559 79.3127 33.572C79.2543 33.0381 78.9123 32.7294 78.4284 32.5793C78.2199 32.5126 77.9947 32.4792 77.7778 32.4625C77.3773 32.4458 76.9769 32.4542 76.5765 32.4542C76.5014 32.4542 76.4264 32.4875 76.3346 32.5042C76.3263 33.3968 76.3263 34.2644 76.3263 35.2237Z" fill="#3E4353"/>
<path d="M130.708 35.0816C132.176 35.0816 133.553 35.0816 134.979 35.0816C134.979 33.8386 134.979 32.629 134.979 31.3861C135.405 31.3861 135.788 31.3861 136.172 31.3861C136.247 31.6864 136.272 39.7781 136.189 40.2453C135.797 40.2453 135.405 40.2453 134.979 40.2453C134.979 38.9022 134.979 37.5842 134.979 36.2828C134.662 36.1744 131.267 36.1494 130.725 36.2495C130.725 37.5675 130.725 38.8939 130.725 40.2453C130.283 40.2453 129.89 40.2453 129.473 40.2453C129.473 37.2922 129.473 34.3725 129.473 31.4445C129.765 31.336 130.199 31.3277 130.7 31.4111C130.708 32.6207 130.708 33.8386 130.708 35.0816Z" fill="#3E4353"/>
<path d="M94.0697 36.1911C92.9603 36.1911 91.8841 36.1911 90.8163 36.1911C90.7162 36.5164 90.6829 38.3183 90.758 39.1692C91.9592 39.2276 93.1771 39.1608 94.4118 39.2109C94.4118 39.5696 94.4118 39.8949 94.4118 40.2536C92.7684 40.2536 91.15 40.2536 89.54 40.2536C89.4566 39.9366 89.4316 32.0451 89.5067 31.4361C89.807 31.3444 93.9529 31.3277 94.4118 31.4194C94.4118 31.7364 94.4118 32.0618 94.4118 32.4372C93.1855 32.4372 91.9842 32.4372 90.758 32.4372C90.758 33.3381 90.758 34.1973 90.758 35.0983C91.8591 35.0983 92.9436 35.0983 94.0697 35.0983C94.0697 35.4737 94.0697 35.799 94.0697 36.1911Z" fill="#3E4353"/>
<path d="M62.2197 31.3862C63.788 31.3862 65.323 31.3862 66.8829 31.3862C66.8829 31.7366 66.8829 32.0619 66.8829 32.4373C65.7484 32.4373 64.6306 32.4373 63.4877 32.4373C63.4877 33.3383 63.4877 34.1975 63.4877 35.0984C64.5638 35.0984 65.6233 35.0984 66.7161 35.0984C66.7161 35.4738 66.7161 35.7992 66.7161 36.1829C65.6483 36.1829 64.5805 36.1829 63.471 36.1829C63.471 37.5593 63.471 38.8857 63.471 40.2455C63.0289 40.2455 62.6368 40.2455 62.2197 40.2455C62.2197 37.2924 62.2197 34.3727 62.2197 31.3862Z" fill="#3E4353"/>
<path d="M148.118 40.2788C147.784 40.2788 147.534 40.2788 147.292 40.2788C147.167 40.2788 147.041 40.2788 146.858 40.2788C146.85 39.7366 146.85 39.2277 146.85 38.7272C146.85 38.21 146.85 37.7011 146.85 37.1839C146.85 36.6584 146.85 36.1328 146.85 35.599C146.85 35.0817 146.85 34.5729 146.85 34.0557C146.85 33.5468 146.85 33.0296 146.85 32.4707C145.924 32.4123 145.014 32.479 144.088 32.429C144.088 32.0703 144.088 31.7533 144.088 31.4446C144.38 31.3445 150.203 31.3112 150.845 31.4029C150.845 31.7283 150.845 32.0536 150.845 32.4373C149.953 32.4373 149.06 32.4373 148.118 32.4373C148.118 35.0734 148.118 37.6428 148.118 40.2788Z" fill="#3E4353"/>
<path d="M104.205 40.2536C103.805 40.2536 103.421 40.2536 103.046 40.2536C102.962 39.9366 102.929 32.1535 103.012 31.3943C103.396 31.3276 103.788 31.3693 104.213 31.3693C104.205 34.3391 104.205 37.2838 104.205 40.2536Z" fill="#3E4353"/>
</svg>
