<svg width="54" height="54" viewBox="0 0 54 54" fill="none" xmlns="http://www.w3.org/2000/svg">
<g filter="url(#filter0_b)">
<circle cx="27" cy="27" r="27" fill="#EDEFF3"/>
</g>
<g clip-path="url(#clip0)">
<path d="M37.6694 28.0149H35.3494C35.5859 28.6624 35.715 29.3611 35.715 30.0893V38.8579C35.715 39.1616 35.6622 39.453 35.566 39.7241H39.4017C40.8345 39.7241 42.0001 38.5584 42.0001 37.1257V32.3455C42.0001 29.9576 40.0574 28.0149 37.6694 28.0149Z" fill="#3E58A5"/>
<path d="M18.2851 30.0893C18.2851 29.361 18.4143 28.6624 18.6508 28.0149H16.3307C13.9427 28.0149 12 29.9576 12 32.3456V37.1257C12 38.5584 13.1656 39.7241 14.5984 39.7241H18.4341C18.3379 39.4529 18.2851 39.1616 18.2851 38.8579V30.0893Z" fill="#3E58A5"/>
<path d="M29.652 25.7588H24.348C21.9601 25.7588 20.0173 27.7015 20.0173 30.0895V38.858C20.0173 39.3363 20.4051 39.7242 20.8835 39.7242H33.1166C33.5949 39.7242 33.9827 39.3364 33.9827 38.858V30.0895C33.9827 27.7015 32.04 25.7588 29.652 25.7588Z" fill="#3E58A5"/>
<path d="M26.9999 14.2756C24.1281 14.2756 21.7917 16.612 21.7917 19.4839C21.7917 21.4318 22.8669 23.1331 24.4547 24.0263C25.2078 24.4499 26.076 24.692 26.9999 24.692C27.9238 24.692 28.7921 24.4499 29.5452 24.0263C31.133 23.1331 32.2081 21.4318 32.2081 19.4839C32.2081 16.6121 29.8717 14.2756 26.9999 14.2756Z" fill="#3E58A5"/>
<path d="M17.8545 19.1304C15.7067 19.1304 13.9595 20.8776 13.9595 23.0254C13.9595 25.1732 15.7067 26.9204 17.8545 26.9204C18.3993 26.9204 18.9181 26.8076 19.3894 26.6047C20.2042 26.2539 20.876 25.6329 21.2917 24.8551C21.5835 24.3092 21.7495 23.6864 21.7495 23.0254C21.7495 20.8777 20.0023 19.1304 17.8545 19.1304Z" fill="#3E58A5"/>
<path d="M36.1455 19.1304C33.9978 19.1304 32.2505 20.8776 32.2505 23.0254C32.2505 23.6865 32.4165 24.3092 32.7083 24.8551C33.124 25.633 33.7958 26.254 34.6106 26.6047C35.0819 26.8076 35.6007 26.9204 36.1455 26.9204C38.2933 26.9204 40.0405 25.1732 40.0405 23.0254C40.0405 20.8776 38.2933 19.1304 36.1455 19.1304Z" fill="#3E58A5"/>
</g>
<defs>
<filter id="filter0_b" x="-24" y="-24" width="102" height="102" filterUnits="userSpaceOnUse" color-interpolation-filters="sRGB">
<feFlood flood-opacity="0" result="BackgroundImageFix"/>
<feGaussianBlur in="BackgroundImage" stdDeviation="12"/>
<feComposite in2="SourceAlpha" operator="in" result="effect1_backgroundBlur"/>
<feBlend mode="normal" in="SourceGraphic" in2="effect1_backgroundBlur" result="shape"/>
</filter>
<clipPath id="clip0">
<rect width="30" height="30" fill="white" transform="translate(12 12)"/>
</clipPath>
</defs>
</svg>
