<svg width="50" height="50" viewBox="0 0 50 50" fill="none" xmlns="http://www.w3.org/2000/svg">
<path d="M38.3333 26.6667V20C38.3333 19.08 39.08 18.3333 40 18.3333H44.7617L44.1983 17.02C43.6733 15.795 42.4683 15 41.135 15H33.3333C31.4917 15 30 16.4917 30 18.3333V38.3333H35.0833C34.9433 37.6433 34.97 36.895 35.2283 36.1233C35.665 34.8167 36.7867 33.7833 38.125 33.46C40.8783 32.7933 43.3333 34.86 43.3333 37.5C43.3333 37.785 43.3033 38.0633 43.25 38.3333H48.3333V26.6667H38.3333Z" fill="#3E58A5"/>
<path d="M39.1667 33.3334C38.0617 33.3334 37.0019 33.7724 36.2205 34.5538C35.4391 35.3352 35.0001 36.395 35.0001 37.5C35.0001 38.6051 35.4391 39.6649 36.2205 40.4463C37.0019 41.2277 38.0617 41.6667 39.1667 41.6667C40.2718 41.6667 41.3316 41.2277 42.113 40.4463C42.8944 39.6649 43.3334 38.6051 43.3334 37.5C43.3334 36.395 42.8944 35.3352 42.113 34.5538C41.3316 33.7724 40.2718 33.3334 39.1667 33.3334ZM10.8334 33.3334C9.72835 33.3334 8.66854 33.7724 7.88714 34.5538C7.10573 35.3352 6.66675 36.395 6.66675 37.5C6.66675 38.6051 7.10573 39.6649 7.88714 40.4463C8.66854 41.2277 9.72835 41.6667 10.8334 41.6667C11.9385 41.6667 12.9983 41.2277 13.7797 40.4463C14.5611 39.6649 15.0001 38.6051 15.0001 37.5C15.0001 36.395 14.5611 35.3352 13.7797 34.5538C12.9983 33.7724 11.9385 33.3334 10.8334 33.3334Z" stroke="#3E58A5" stroke-width="3.33333" stroke-miterlimit="10"/>
<path d="M1.66675 36.6666H3.33341M46.6668 36.6666H48.3334H46.6668Z" stroke="#3E58A5" stroke-width="3.33333" stroke-miterlimit="10" stroke-linecap="round"/>
<path d="M31.6667 31.6667H1.66675V38.3334H6.75008C6.61008 37.6434 6.63675 36.895 6.89508 36.1234C7.33175 34.8184 8.45175 33.785 9.78841 33.46C12.5417 32.7917 15.0001 34.8584 15.0001 37.5C15.0001 37.785 14.9701 38.0634 14.9167 38.3334H31.6667V31.6667ZM1.66675 23.3334H26.6667V28.3334H1.66675V23.3334Z" fill="#3E58A5"/>
</svg>
