<svg width="50" height="50" viewBox="0 0 50 50" fill="none" xmlns="http://www.w3.org/2000/svg">
<path d="M45.0001 10H5.00008C3.15841 10 1.66675 11.4917 1.66675 13.3333V30H48.3334V13.3333C48.3334 11.4917 46.8418 10 45.0001 10ZM8.33342 36.6667C7.44936 36.6667 6.60151 37.0179 5.97639 37.643C5.35127 38.2681 5.00008 39.1159 5.00008 40C5.00008 40.8841 5.35127 41.7319 5.97639 42.357C6.60151 42.9821 7.44936 43.3333 8.33342 43.3333C9.21747 43.3333 10.0653 42.9821 10.6904 42.357C11.3156 41.7319 11.6667 40.8841 11.6667 40C11.6667 39.1159 11.3156 38.2681 10.6904 37.643C10.0653 37.0179 9.21747 36.6667 8.33342 36.6667Z" stroke="#3E58A5" stroke-width="3.33333" stroke-miterlimit="10" stroke-linecap="round"/>
<path d="M15.0001 36.6666C14.116 36.6666 13.2682 37.0178 12.6431 37.6429C12.0179 38.2681 11.6667 39.1159 11.6667 40C11.6667 40.884 12.0179 41.7319 12.6431 42.357C13.2682 42.9821 14.116 43.3333 15.0001 43.3333C15.8841 43.3333 16.732 42.9821 17.3571 42.357C17.9822 41.7319 18.3334 40.884 18.3334 40C18.3334 39.1159 17.9822 38.2681 17.3571 37.6429C16.732 37.0178 15.8841 36.6666 15.0001 36.6666ZM35.0001 36.6666C34.116 36.6666 33.2682 37.0178 32.6431 37.6429C32.0179 38.2681 31.6667 39.1159 31.6667 40C31.6667 40.884 32.0179 41.7319 32.6431 42.357C33.2682 42.9821 34.116 43.3333 35.0001 43.3333C35.8841 43.3333 36.732 42.9821 37.3571 42.357C37.9822 41.7319 38.3334 40.884 38.3334 40C38.3334 39.1159 37.9822 38.2681 37.3571 37.6429C36.732 37.0178 35.8841 36.6666 35.0001 36.6666Z" stroke="#3E58A5" stroke-width="3.33333" stroke-miterlimit="10" stroke-linecap="round"/>
<path d="M41.6666 36.6666C40.7825 36.6666 39.9347 37.0178 39.3096 37.6429C38.6844 38.2681 38.3333 39.1159 38.3333 40C38.3333 40.884 38.6844 41.7319 39.3096 42.357C39.9347 42.9821 40.7825 43.3333 41.6666 43.3333C42.5506 43.3333 43.3985 42.9821 44.0236 42.357C44.6487 41.7319 44.9999 40.884 44.9999 40C44.9999 39.1159 44.6487 38.2681 44.0236 37.6429C43.3985 37.0178 42.5506 36.6666 41.6666 36.6666Z" stroke="#3E58A5" stroke-width="3.33333" stroke-miterlimit="10" stroke-linecap="round"/>
<path d="M1.66675 23.3334H48.3334V30H1.66675V23.3334Z" fill="#3E58A5"/>
<path d="M16.6667 10H10.0001V11.6667C10.9201 11.6667 11.6667 12.4133 11.6667 13.3333V21.6667C11.6667 22.5867 10.9201 23.3333 10.0001 23.3333V25H16.6667V23.3333C15.7467 23.3333 15.0001 22.5867 15.0001 21.6667V13.3333C15.0001 12.4133 15.7467 11.6667 16.6667 11.6667V10ZM28.3334 10H21.6667V11.6667C22.5867 11.6667 23.3334 12.4133 23.3334 13.3333V21.6667C23.3334 22.5867 22.5867 23.3333 21.6667 23.3333V25H28.3334V23.3333C27.4134 23.3333 26.6667 22.5867 26.6667 21.6667V13.3333C26.6667 12.4133 27.4134 11.6667 28.3334 11.6667V10ZM40.0001 10H33.3334V11.6667C34.2534 11.6667 35.0001 12.4133 35.0001 13.3333V21.6667C35.0001 22.5867 34.2534 23.3333 33.3334 23.3333V25H40.0001V23.3333C39.0801 23.3333 38.3334 22.5867 38.3334 21.6667V13.3333C38.3334 12.4133 39.0801 11.6667 40.0001 11.6667V10ZM46.6668 20V21.6667C46.6668 22.5867 45.9201 23.3333 45.0001 23.3333V25H48.3334V20H46.6668ZM3.33341 20V21.6667C3.33341 22.5867 4.08008 23.3333 5.00008 23.3333V25H1.66675V20H3.33341Z" fill="#3E58A5"/>
<path d="M1.66675 36.6666H48.3334" stroke="#3E58A5" stroke-width="3.33333" stroke-miterlimit="10" stroke-linecap="round"/>
</svg>
