<svg width="50" height="50" viewBox="0 0 50 50" fill="none" xmlns="http://www.w3.org/2000/svg">
<path d="M41.6666 36.6666H34.9999V41.6666C34.9999 43.5083 36.4916 45 38.3333 45C40.1749 45 41.6666 43.5083 41.6666 41.6666V36.6666ZM14.9999 36.6666H8.33325V41.6666C8.33325 43.5083 9.82492 45 11.6666 45C13.5083 45 14.9999 43.5083 14.9999 41.6666V36.6666Z" fill="#3E58A5"/>
<path d="M40.0001 26.6667V20H10.0001V26.6667L8.51008 27.4117C7.38008 27.9767 6.66675 29.1317 6.66675 30.3933V36.6667C6.66675 38.5083 8.15841 40 10.0001 40H40.0001C41.8418 40 43.3334 38.5083 43.3334 36.6667V30.3933C43.3334 29.13 42.6201 27.9767 41.4901 27.4117L40.0001 26.6667ZM35.0001 33.3333C35.0001 32.4133 35.7467 31.6667 36.6667 31.6667H38.3334C39.2534 31.6667 40.0001 32.4133 40.0001 33.3333C40.0001 34.2533 39.2534 35 38.3334 35H36.6667C35.7467 35 35.0001 34.2533 35.0001 33.3333ZM10.0001 33.3333C10.0001 32.4133 10.7467 31.6667 11.6667 31.6667H13.3334C14.2534 31.6667 15.0001 32.4133 15.0001 33.3333C15.0001 34.2533 14.2534 35 13.3334 35H11.6667C10.7467 35 10.0001 34.2533 10.0001 33.3333ZM31.6667 35H18.3334V26.6667C18.3334 24.825 19.8251 23.3333 21.6667 23.3333H28.3334C30.1751 23.3333 31.6667 24.825 31.6667 26.6667V35Z" fill="#3E58A5"/>
<path d="M43.3334 16.6666V21.6666M6.66675 16.6666V21.6666" stroke="#3E58A5" stroke-width="3.33333" stroke-miterlimit="10" stroke-linecap="round"/>
<path d="M39.9667 19.6733L38.68 13.235C38.3967 11.82 37.5133 10.6133 36.3133 9.905L35.6617 7.47167C35.2717 6.01333 33.9517 5 32.4417 5H17.5567C16.0483 5 14.7283 6.01333 14.3383 7.47L13.6867 9.90333C12.4867 10.6117 11.605 11.8183 11.32 13.235L10.0333 19.6733C10.0217 19.7833 10.0117 19.8917 10 20.0017V21.6667C10 22.5867 10.7467 23.3333 11.6667 23.3333H38.3333C39.2533 23.3333 40 22.5867 40 21.6667V20.0017C39.9883 19.8917 39.9783 19.7833 39.9667 19.6733ZM13.3667 20L14.5883 13.89C14.7133 13.2633 15.175 12.7633 15.7667 12.6117C17.4567 12.1817 20.43 11.6667 25 11.6667C29.57 11.6667 32.5433 12.1817 34.2333 12.6117C34.8233 12.7633 35.2867 13.265 35.4117 13.89L36.6333 20H13.3667Z" fill="#3E58A5"/>
</svg>
