<svg width="50" height="50" viewBox="0 0 50 50" fill="none" xmlns="http://www.w3.org/2000/svg">
<path d="M40.8334 33.3334C39.7283 33.3334 38.6685 33.7724 37.8871 34.5538C37.1057 35.3352 36.6667 36.395 36.6667 37.5C36.6667 38.6051 37.1057 39.6649 37.8871 40.4463C38.6685 41.2277 39.7283 41.6667 40.8334 41.6667C41.9385 41.6667 42.9983 41.2277 43.7797 40.4463C44.5611 39.6649 45.0001 38.6051 45.0001 37.5C45.0001 36.395 44.5611 35.3352 43.7797 34.5538C42.9983 33.7724 41.9385 33.3334 40.8334 33.3334ZM10.8334 33.3334C9.72835 33.3334 8.66854 33.7724 7.88714 34.5538C7.10573 35.3352 6.66675 36.395 6.66675 37.5C6.66675 38.6051 7.10573 39.6649 7.88714 40.4463C8.66854 41.2277 9.72835 41.6667 10.8334 41.6667C11.9385 41.6667 12.9983 41.2277 13.7797 40.4463C14.5611 39.6649 15.0001 38.6051 15.0001 37.5C15.0001 36.395 14.5611 35.3352 13.7797 34.5538C12.9983 33.7724 11.9385 33.3334 10.8334 33.3334Z" stroke="#3E58A5" stroke-width="3.33333" stroke-miterlimit="10"/>
<path d="M1.66675 36.6666H5.00008M46.6668 36.6666H48.3334H46.6668Z" stroke="#3E58A5" stroke-width="3.33333" stroke-miterlimit="10" stroke-linecap="round"/>
<path d="M45.0001 23.3333H40.0001C39.0801 23.3333 38.3334 22.5866 38.3334 21.6666V16.6666C38.3334 15.7466 39.0801 15 40.0001 15H44.7617L44.1984 13.6866C43.6734 12.4616 42.4684 11.6666 41.1351 11.6666H5.00008C3.15841 11.6666 1.66675 13.1583 1.66675 15V38.3333H6.75008C6.61008 37.6433 6.63675 36.895 6.89508 36.1233C7.33175 34.8183 8.45342 33.785 9.79008 33.46C12.5434 32.7916 15.0001 34.8583 15.0001 37.5C15.0001 37.785 14.9701 38.0633 14.9167 38.3333H36.7501C36.5184 37.19 36.7434 35.8833 37.7217 34.5816C37.8501 34.46 37.9884 34.33 38.1184 34.2066C41.4618 31.9883 45.0001 34.33 45.0001 37.5C45.0001 37.785 44.9701 38.0633 44.9168 38.3333H48.3334V26.6666C48.3334 24.825 46.8418 23.3333 45.0001 23.3333ZM10.0001 30H6.66675V16.6666H10.0001V30ZM23.3334 21.6666H20.0001V20H16.6667V26.6666H20.0001V25H23.3334V26.6666C23.3334 28.505 21.8384 30 20.0001 30H16.6667C14.8284 30 13.3334 28.505 13.3334 26.6666V20C13.3334 18.1616 14.8284 16.6666 16.6667 16.6666H20.0001C21.8384 16.6666 23.3334 18.1616 23.3334 20V21.6666ZM35.0001 20H30.0001V21.6666H31.6667V25H30.0001V26.6666H35.0001V30H26.6667V16.6666H35.0001V20Z" fill="#3E58A5"/>
</svg>
