<svg width="49" height="49" viewBox="0 0 49 49" fill="none" xmlns="http://www.w3.org/2000/svg">
<path d="M6.45128 32.4093C6.60941 33.007 7.21441 33.3656 7.79878 33.2039L22.6763 29.1258C23.2606 28.964 23.6113 28.3453 23.4531 27.7476L20.0363 14.7047C19.8781 14.107 19.2731 13.7484 18.6888 13.9101L13.3813 15.3726L15.0863 21.8906L10.8375 23.0508L9.13253 16.5328L3.81816 17.9883C3.23379 18.15 2.88316 18.7687 3.04129 19.3664L6.45128 32.4093ZM29.4 6C28.1831 6 27.2 7.00547 27.2 8.25V31.0031L3.40566 37.6406C3.11004 37.725 2.93816 38.0343 3.02066 38.3297L3.88691 41.5851C3.96941 41.8875 4.27191 42.0632 4.56066 41.9789L31.6275 34.4273C31.7925 38.632 35.1475 42 39.3 42C43.5556 42 47 38.4773 47 34.125V6H29.4ZM39.3 37.5C37.4781 37.5 36 35.9882 36 34.125C36 32.2617 37.4781 30.75 39.3 30.75C41.1219 30.75 42.6 32.2617 42.6 34.125C42.6 35.9882 41.1219 37.5 39.3 37.5Z" fill="#3E58A5"/>
</svg>
