<svg width="84" height="84" viewBox="0 0 84 84" fill="none" xmlns="http://www.w3.org/2000/svg">
<path d="M56 10.5H3.5V56H56V10.5Z" stroke="#C1C8D6" stroke-width="7" stroke-linecap="round" stroke-linejoin="round"/>
<path d="M56 28H70L80.5 38.5V56H56V28Z" stroke="#C1C8D6" stroke-width="7" stroke-linecap="round" stroke-linejoin="round"/>
<path d="M19.25 73.5C24.0825 73.5 28 69.5825 28 64.75C28 59.9175 24.0825 56 19.25 56C14.4175 56 10.5 59.9175 10.5 64.75C10.5 69.5825 14.4175 73.5 19.25 73.5Z" stroke="#C1C8D6" stroke-width="7" stroke-linecap="round" stroke-linejoin="round"/>
<path d="M64.75 73.5C69.5825 73.5 73.5 69.5825 73.5 64.75C73.5 59.9175 69.5825 56 64.75 56C59.9175 56 56 59.9175 56 64.75C56 69.5825 59.9175 73.5 64.75 73.5Z" stroke="#C1C8D6" stroke-width="7" stroke-linecap="round" stroke-linejoin="round"/>
</svg>
