<svg width="95" height="54" viewBox="0 0 95 54" fill="none" xmlns="http://www.w3.org/2000/svg">
<g filter="url(#filter0_b)">
<circle cx="27" cy="27" r="27" fill="#EDEFF3"/>
</g>
<g clip-path="url(#clip0)">
<path d="M18.7896 21.8614C20.4585 21.8614 21.8162 20.5033 21.8162 18.8339C21.8162 17.1646 20.4585 15.8064 18.7896 15.8064C17.1203 15.8064 15.7622 17.1645 15.7622 18.8339C15.7623 20.5033 17.1203 21.8614 18.7896 21.8614Z" fill="#3E58A5"/>
<path d="M25.7059 18.5837C25.3784 18.5837 25.0667 18.7074 24.828 18.932L23.6574 20.0338C23.4265 20.2511 22.9941 20.5979 22.7322 20.7761L20.3772 22.3765H16.8518C16.2559 22.3765 15.947 22.5517 15.7026 22.8571L14.1682 24.7739C13.9201 25.0839 13.5252 25.599 13.288 25.9223L12.2483 27.3401C12.0459 27.6161 11.9631 27.9544 12.0152 28.2926C12.0673 28.6308 12.2478 28.9285 12.5237 29.1309C12.7451 29.2932 13.0068 29.379 13.2805 29.379C13.6875 29.379 14.0741 29.1832 14.3145 28.8554L15.3542 27.4377C15.3598 27.4302 15.3658 27.422 15.3715 27.4142L15.1518 29.8701L13.3535 38.4107C13.2791 38.7637 13.3467 39.1246 13.5438 39.4268C13.7409 39.729 14.0439 39.9364 14.3968 40.0107C14.4888 40.0302 14.5829 40.04 14.6765 40.04C15.3108 40.04 15.8662 39.5889 15.997 38.9673L17.68 30.9746H18.1183L18.3586 33.6724C18.3875 33.9964 18.4021 34.5659 18.3898 34.8912L18.2481 38.6379C18.2345 38.9985 18.362 39.3427 18.6073 39.6073C18.8526 39.8719 19.1863 40.0251 19.547 40.0388C19.5643 40.0394 19.5816 40.0399 19.5987 40.0399C20.3276 40.0399 20.9201 39.4689 20.9477 38.74L21.0893 34.9935C21.1059 34.5554 21.0884 33.8698 21.0495 33.4327L20.69 29.3987C20.689 29.3879 20.6868 29.3773 20.6856 29.3664L21.0765 24.9992L24.1724 22.8952C24.5422 22.6439 25.0873 22.2066 25.4135 21.8997L26.5841 20.7979C27.0985 20.3137 27.1231 19.5013 26.6389 18.9869C26.3979 18.7306 26.0578 18.5837 25.7059 18.5837Z" fill="#3E58A5"/>
<path d="M35.0788 20.9263C36.7481 20.9263 38.1063 19.5682 38.1063 17.8988C38.1063 16.2295 36.7481 14.8713 35.0788 14.8713C33.4099 14.8713 32.0522 16.2294 32.0522 17.8988C32.0522 19.5682 33.41 20.9263 35.0788 20.9263Z" fill="#3E58A5"/>
<path d="M39.6853 27.9208C39.9258 28.2485 40.3124 28.4443 40.7194 28.4443C40.9931 28.4443 41.2547 28.3585 41.4761 28.1962C41.752 27.9939 41.9326 27.6961 41.9847 27.3579C42.0367 27.0197 41.9539 26.6814 41.7516 26.4054L40.7118 24.9877C40.4749 24.6647 40.0801 24.1495 39.8316 23.8392L38.2971 21.9224C38.0526 21.6169 37.7795 21.4418 37.2961 21.4418C37.284 21.4418 33.4912 21.4418 33.4912 21.4418L31.1363 19.8413C30.8547 19.6501 30.4875 19.3594 30.3472 19.2273L29.9764 18.8782C29.7379 18.6537 29.4261 18.53 29.0986 18.53C28.7466 18.53 28.4065 18.6769 28.1654 18.9331C27.9308 19.1823 27.8074 19.5079 27.8177 19.8499C27.8281 20.192 27.9711 20.5095 28.2202 20.744L28.591 21.0929C28.844 21.3312 29.3191 21.7042 29.6959 21.9604L32.7918 24.0643L33.1826 28.4313C33.1814 28.4422 33.1791 28.4528 33.1782 28.4638L32.8188 32.4977C32.7659 33.0891 32.8908 33.9174 33.1156 34.4672L34.1894 37.0944C34.3979 37.6047 34.889 37.9344 35.4402 37.9344C35.6155 37.9344 35.7873 37.9005 35.9507 37.8336C36.2847 37.6972 36.5455 37.4388 36.6852 37.106C36.8249 36.7734 36.8266 36.4062 36.6901 36.0723L35.6161 33.4448C35.5537 33.2921 35.4949 32.9021 35.5096 32.7375L35.75 30.0397H36.1882L36.8288 33.0814C36.9473 33.6439 37.2975 34.1229 37.7894 34.3954C38.073 34.5526 38.3967 34.6357 38.7252 34.6357C38.9596 34.6357 39.1909 34.5945 39.4129 34.5131L40.8271 33.9948C41.5265 33.7385 41.887 32.9611 41.6307 32.2618C41.4364 31.7316 40.9267 31.3754 40.3624 31.3754C40.204 31.3754 40.0475 31.4033 39.8976 31.4583L39.2943 31.6793L38.7164 28.9355L38.4787 26.2787C38.54 26.3602 38.5969 26.4366 38.6454 26.5028L39.6853 27.9208Z" fill="#3E58A5"/>
<path d="M28.5138 16.6496C28.5499 16.6588 28.5861 16.6632 28.6218 16.6632C28.8176 16.6632 28.996 16.531 29.0463 16.3325C29.1871 15.7773 29.5407 14.9342 29.8384 14.7953C30.0577 14.6929 30.1525 14.4321 30.0501 14.2128C29.9479 13.9935 29.6871 13.8985 29.4677 14.001C28.6748 14.371 28.2698 15.8286 28.1967 16.1171C28.1371 16.3518 28.2791 16.5902 28.5138 16.6496Z" fill="#3E58A5"/>
<path d="M26.4912 15.499C26.2719 15.3966 26.0111 15.4914 25.9086 15.7108C25.8063 15.9302 25.9011 16.191 26.1205 16.2933C26.4167 16.4315 26.7708 17.2751 26.9127 17.8308C26.9631 18.0292 27.1414 18.1612 27.3371 18.1612C27.3727 18.1612 27.4089 18.1568 27.4451 18.1477C27.6798 18.0882 27.8217 17.8498 27.7622 17.6152C27.6891 17.3267 27.2841 15.869 26.4912 15.499Z" fill="#3E58A5"/>
</g>
<path d="M74 27L94 27" stroke="#3E58A5" stroke-width="2" stroke-linecap="round" stroke-dasharray="6 6"/>
<defs>
<filter id="filter0_b" x="-24" y="-24" width="102" height="102" filterUnits="userSpaceOnUse" color-interpolation-filters="sRGB">
<feFlood flood-opacity="0" result="BackgroundImageFix"/>
<feGaussianBlur in="BackgroundImage" stdDeviation="12"/>
<feComposite in2="SourceAlpha" operator="in" result="effect1_backgroundBlur"/>
<feBlend mode="normal" in="SourceGraphic" in2="effect1_backgroundBlur" result="shape"/>
</filter>
<clipPath id="clip0">
<rect width="30" height="30" fill="white" transform="translate(12 12)"/>
</clipPath>
</defs>
</svg>
