<svg width="50" height="50" viewBox="0 0 50 50" fill="none" xmlns="http://www.w3.org/2000/svg">
<g clip-path="url(#clip0)">
<path d="M1.66675 10V26.6667H26.6667V10H1.66675ZM13.3334 23.3333C12.4134 23.3333 11.6667 22.5867 11.6667 21.6667V15C11.6667 14.08 12.4134 13.3333 13.3334 13.3333C14.2534 13.3333 15.0001 14.08 15.0001 15V21.6667C15.0001 22.5867 14.2534 23.3333 13.3334 23.3333ZM20.0001 23.3333C19.0801 23.3333 18.3334 22.5867 18.3334 21.6667V15C18.3334 14.08 19.0801 13.3333 20.0001 13.3333C20.9201 13.3333 21.6667 14.08 21.6667 15V21.6667C21.6667 22.5867 20.9201 23.3333 20.0001 23.3333ZM6.66675 23.3333C5.74675 23.3333 5.00008 22.5867 5.00008 21.6667V15C5.00008 14.08 5.74675 13.3333 6.66675 13.3333C7.58675 13.3333 8.33341 14.08 8.33341 15V21.6667C8.33341 22.5867 7.58675 23.3333 6.66675 23.3333ZM38.3334 26.6667V20C38.3334 19.08 39.0801 18.3333 40.0001 18.3333H44.7617L44.1984 17.02C43.6734 15.795 42.4684 15 41.1351 15H33.3334C31.4917 15 30.0001 16.4917 30.0001 18.3333V38.3333H35.0834C34.9434 37.6433 34.9701 36.895 35.2284 36.1233C35.6651 34.8167 36.7867 33.7833 38.1251 33.46C40.8784 32.7933 43.3334 34.86 43.3334 37.5C43.3334 37.785 43.3034 38.0633 43.2501 38.3333H48.3334V26.6667H38.3334Z" fill="#3E58A5"/>
<path d="M39.1667 33.3334C38.0616 33.3334 37.0018 33.7724 36.2204 34.5538C35.439 35.3352 35 36.395 35 37.5C35 38.6051 35.439 39.6649 36.2204 40.4463C37.0018 41.2277 38.0616 41.6667 39.1667 41.6667C40.2717 41.6667 41.3315 41.2277 42.1129 40.4463C42.8943 39.6649 43.3333 38.6051 43.3333 37.5C43.3333 36.395 42.8943 35.3352 42.1129 34.5538C41.3315 33.7724 40.2717 33.3334 39.1667 33.3334Z" stroke="#3E58A5" stroke-width="3.48333" stroke-miterlimit="10"/>
<path d="M30.0001 30H1.66675V38.3333H8.41675C8.27675 37.6433 8.30342 36.895 8.56175 36.1233C8.99842 34.8167 10.1201 33.7833 11.4584 33.46C14.2101 32.7933 16.6667 34.86 16.6667 37.5C16.6667 37.785 16.6367 38.0633 16.5834 38.3333H30.0001V30Z" fill="#3E58A5"/>
<path d="M12.4999 33.3334C11.3948 33.3334 10.335 33.7724 9.55364 34.5538C8.77224 35.3352 8.33325 36.395 8.33325 37.5C8.33325 38.6051 8.77224 39.6649 9.55364 40.4463C10.335 41.2277 11.3948 41.6667 12.4999 41.6667C13.605 41.6667 14.6648 41.2277 15.4462 40.4463C16.2276 39.6649 16.6666 38.6051 16.6666 37.5C16.6666 36.395 16.2276 35.3352 15.4462 34.5538C14.6648 33.7724 13.605 33.3334 12.4999 33.3334Z" stroke="#3E58A5" stroke-width="3.48333" stroke-miterlimit="10"/>
<path d="M1.66675 10V25M46.6667 36.6667H48.3334H46.6667ZM1.66675 36.6667H5.00008H1.66675ZM25.0001 10V25V10Z" stroke="#3E58A5" stroke-width="3.48333" stroke-miterlimit="10" stroke-linecap="round"/>
</g>
<defs>
<clipPath id="clip0">
<rect width="50" height="50" fill="white"/>
</clipPath>
</defs>
</svg>
